<svg xmlns="http://www.w3.org/2000/svg" width="512" height="512" viewBox="0 0 135.46666 135.46667"><path d="M 67.733332 0 A 16.933332 16.933332 0 0 0 50.799999 16.933333 L 50.799999 50.799999 L 16.933333 50.799999 A 16.933332 16.933332 0 0 0 0 67.733332 A 16.933332 16.933332 0 0 0 16.933333 84.666666 L 50.799999 84.666666 L 50.799999 118.53333 A 16.933332 16.933332 0 0 0 67.733332 135.46666 A 16.933332 16.933332 0 0 0 84.666666 118.53333 L 84.666666 84.666666 L 118.53333 84.666666 A 16.933332 16.933332 0 0 0 135.46666 67.733332 A 16.933332 16.933332 0 0 0 118.53333 50.799999 L 84.666666 50.799999 L 84.666666 16.933333 A 16.933332 16.933332 0 0 0 67.733332 0 z" style="fill:#f0f0f0;fill-opacity:1;stroke:none;stroke-width:1.5875;stroke-linecap:round;stroke-linejoin:round;stroke-miterlimit:128;paint-order:stroke fill markers"/></svg>