<svg xmlns="http://www.w3.org/2000/svg" width="512" height="512" viewBox="0 0 135.46666 135.46667"><path d="m 21.018163,9.0428877 c -2.871435,0.7692334 -5.489772,2.2808233 -7.591796,4.3828123 -6.6128129,6.612872 -6.6128129,17.334394 0,23.947266 L 43.785156,67.734375 13.426367,98.093829 c -6.6128091,6.612871 -6.6128091,17.334391 0,23.947261 6.612872,6.61281 17.334393,6.61281 23.947265,0 l 30.360743,-30.361403 30.35866,30.361403 c 6.612875,6.61281 17.334385,6.61281 23.947265,0 6.6128,-6.61287 6.6128,-17.33439 0,-23.947261 L 91.679687,67.734375 122.0403,37.372966 c 6.61281,-6.612872 6.61281,-17.334394 0,-23.947266 -6.61288,-6.6128088 -17.33439,-6.6128088 -23.947265,0 L 67.734375,43.785156 37.373632,13.4257 C 33.096059,9.1481827 26.861477,7.4774876 21.018163,9.0428877 Z" style="color:#000;fill:gray;stroke-linecap:round;stroke-linejoin:round;stroke-miterlimit:128;-inkscape-stroke:none"/></svg>