<svg xmlns="http://www.w3.org/2000/svg" width="512" height="512" viewBox="0 0 135.46666 135.46667"><path d="M 59.266665,2.1767577e-6 C 45.238647,3.9800409e-6 33.866666,11.371984 33.866666,25.400002 v 25.399999 h -8.466667 c -9.352022,0 -16.9333328,7.581311 -16.9333328,16.933333 v 50.799996 c 0,9.35202 7.5813128,16.93333 16.9333328,16.93333 l 84.666661,0 c 9.35202,0 16.93333,-7.58131 16.93333,-16.93333 V 67.733332 c 0,-9.352021 -7.58131,-16.933333 -16.93333,-16.933333 H 101.6 V 25.4 C 101.6,11.371982 90.228018,-1.8032833e-6 76.199999,0 Z m 0,16.9333328232423 16.933334,-2e-6 c 4.676007,-1e-6 8.466666,3.790659 8.466666,8.466667 v 25.399999 l -33.866666,2e-6 V 25.400002 c 0,-4.676006 3.790661,-8.466666 8.466666,-8.466667 z m 8.466667,50.799997 c 9.352023,-10e-7 16.933335,7.581311 16.933334,16.933334 -0.01565,6.034013 -3.241029,11.603816 -8.466667,14.620812 v 10.779192 c -3e-6,4.67601 -3.790658,8.46666 -8.466667,8.46666 -4.676008,0 -8.466663,-3.79065 -8.466666,-8.46666 V 99.287478 c -5.225638,-3.016996 -8.451018,-8.586799 -8.466667,-14.620812 -10e-7,-9.352022 7.581311,-16.933335 16.933333,-16.933334 z" style="fill:gray;fill-opacity:1;stroke-width:4.23333;stroke-linecap:round;stroke-linejoin:round;stroke-miterlimit:128"/></svg>